<svg xmlns="http://www.w3.org/2000/svg" xmlns:xlink="http://www.w3.org/1999/xlink" fill="none" version="1.1" width="16" height="16" viewBox="0 0 16 16"><defs><clipPath id="master_svg0_51_0095"><rect x="0" y="0" width="16" height="16" rx="0"/></clipPath></defs><g clip-path="url(#master_svg0_51_0095)"><g><path d="M14.83594013671875,9.0812293359375L13.69064013671875,4.0624793359375C13.61874013671875,3.7468493359375,13.40784013671875,3.4812293359375,13.11564013671875,3.3421593359375L8.476570136718749,1.1077883359375C8.18595013671875,0.9671631359375,7.84533013671875,0.9671631359375,7.55470013671875,1.1077883359375L2.91564013671875,3.3421593359375C2.6250101367187497,3.4827893359375,2.4125101367187503,3.7484093359375,2.3406401367187497,4.0624793359375L1.19532513671875,9.0812293359375C1.12345013671875,9.3968493359375,1.19845013671875,9.7265393359375,1.40001213671875,9.9796593359375L4.6093901367187495,14.0046193359375C4.81095013671875,14.2578193359375,5.1172001367187505,14.4046193359375,5.44064013671875,14.4046193359375L10.58907013671875,14.4046193359375C10.91251013671875,14.4046193359375,11.21874013671875,14.2578193359375,11.42034013671875,14.0046193359375L14.62974013671875,9.9796593359375C14.83284013671875,9.7265393359375,14.90784013671875,9.3952893359375,14.83594013671875,9.0812293359375ZM7.98751013671875,9.5952893359375C7.10783013671875,9.5952893359375,6.39376013671875,8.881229335937501,6.39376013671875,8.001539335937501C6.39376013671875,7.1218493359375,7.10783013671875,6.4077893359375,7.98751013671875,6.4077893359375C8.86720013671875,6.4077893359375,9.58126013671875,7.1218493359375,9.58126013671875,8.001539335937501C9.58126013671875,8.882789335937499,8.86720013671875,9.5952893359375,7.98751013671875,9.5952893359375Z" fill="#878787" fill-opacity="1" style="mix-blend-mode:passthrough"/></g></g></svg>