<?xml version="1.0" encoding="UTF-8"?>
<svg width="16px" height="16px" viewBox="0 0 16 16" version="1.1" xmlns="http://www.w3.org/2000/svg" xmlns:xlink="http://www.w3.org/1999/xlink">
    <title>对勾</title>
    <g id="Page-1" stroke="none" stroke-width="1" fill="none" fill-rule="evenodd">
        <g id="对勾" fill="#000000" fill-rule="nonzero">
            <rect id="Rectangle" opacity="0" x="0" y="0" width="16" height="16"></rect>
            <path d="M13.9385,4.092 C13.8418646,4.00115355 13.7130379,3.95251658 13.5804752,3.95683214 C13.4479126,3.96114769 13.322522,4.01806067 13.232,4.115 L6.5885,11.207 L3.144,8.313 C3.00785905,8.19303352 2.81740844,8.15624136 2.64637977,8.21686733 C2.4753511,8.27749331 2.35059218,8.42602045 2.32040254,8.60494753 C2.29021291,8.78387461 2.35933167,8.96511394 2.501,9.0785 L6.308,12.277 C6.397987,12.3527433 6.51187915,12.3941908 6.6295,12.3940024 C6.76785518,12.3944339 6.90012918,12.3371755 6.9945,12.236 L13.9615,4.799 C14.0522511,4.70221906 14.1008166,4.57333759 14.0965028,4.440734 C14.0921889,4.30813041 14.0353495,4.18267795 13.9385,4.092 L13.9385,4.092 Z" id="Path"></path>
        </g>
    </g>
</svg>