<svg width="24" height="24" viewBox="0 0 24 24" fill="none" xmlns="http://www.w3.org/2000/svg">
<path d="M17.3743 3.93069C17.5802 3.87322 17.7977 3.87153 18.0045 3.9258C18.2113 3.98006 18.4 4.08833 18.5511 4.23951C18.7023 4.39069 18.8106 4.57934 18.8649 4.78613C18.9191 4.99293 18.9174 5.21044 18.86 5.41637L18.3197 7.35546C18.2731 7.52226 18.263 7.69713 18.2901 7.86817C18.3171 8.03922 18.3807 8.20244 18.4765 8.34672L19.5907 10.0229C19.7092 10.201 19.7782 10.4074 19.7906 10.621C19.803 10.8345 19.7583 11.0475 19.6612 11.2382C19.5642 11.4288 19.4181 11.5901 19.2381 11.7057C19.0581 11.8212 18.8506 11.8868 18.6369 11.8957L16.6242 11.9801C16.4513 11.9875 16.282 12.0321 16.1278 12.1107C15.9736 12.1894 15.8381 12.3003 15.7306 12.436L14.4789 14.0145C14.346 14.1817 14.171 14.3107 13.9719 14.3881C13.7728 14.4656 13.5567 14.4888 13.3457 14.4553C13.1347 14.4218 12.9364 14.3328 12.7711 14.1975C12.6058 14.0622 12.4793 13.8855 12.4047 13.6853L11.7415 11.9017L5.03665 18.6066C4.98103 18.6642 4.9145 18.7101 4.84094 18.7417C4.76737 18.7733 4.68825 18.7899 4.60819 18.7906C4.52813 18.7913 4.44874 18.7761 4.37464 18.7458C4.30054 18.7154 4.23321 18.6707 4.1766 18.614C4.11999 18.5574 4.07522 18.4901 4.0449 18.416C4.01458 18.3419 3.99933 18.2625 4.00002 18.1825C4.00072 18.1024 4.01735 18.0233 4.04895 17.9497C4.08055 17.8762 4.12649 17.8096 4.18407 17.754L10.8889 11.0492L9.10538 10.3859C8.90519 10.3113 8.7284 10.1849 8.59311 10.0196C8.45782 9.85422 8.36888 9.65591 8.33539 9.44492C8.3019 9.23392 8.32506 9.01782 8.40251 8.81871C8.47996 8.61961 8.60891 8.44466 8.77617 8.31175L10.3547 7.06002C10.4902 6.95264 10.601 6.81739 10.6797 6.66342C10.7583 6.50945 10.803 6.34037 10.8105 6.16765L10.8949 4.15378C10.9042 3.94035 10.9699 3.73321 11.0855 3.55354C11.2011 3.37387 11.3623 3.22813 11.5527 3.13122C11.7431 3.03431 11.9558 2.98971 12.1691 3.00199C12.3823 3.01428 12.5885 3.08299 12.7665 3.20112L14.4439 4.31417C14.5882 4.40994 14.7514 4.47352 14.9225 4.50057C15.0935 4.52762 15.2684 4.51751 15.4352 4.47094L17.3743 3.93069ZM12.1286 17.6961C12.1182 17.6773 12.1029 17.6616 12.0843 17.6506C12.0658 17.6397 12.0446 17.6339 12.0231 17.6339C12.0015 17.6339 11.9804 17.6397 11.9618 17.6506C11.9433 17.6616 11.928 17.6773 11.9176 17.6961L11.4376 18.5752C11.4265 18.5956 11.4098 18.6124 11.3894 18.6235L10.5115 19.1022C10.4923 19.1125 10.4763 19.1279 10.4652 19.1465C10.454 19.1652 10.4482 19.1866 10.4482 19.2083C10.4482 19.2301 10.454 19.2514 10.4652 19.2701C10.4763 19.2888 10.4923 19.3041 10.5115 19.3144L11.3894 19.7944C11.4098 19.8055 11.4265 19.8222 11.4376 19.8426L11.9176 20.7205C11.9279 20.7397 11.9432 20.7557 11.9619 20.7668C11.9806 20.778 12.0019 20.7838 12.0237 20.7838C12.0454 20.7838 12.0668 20.778 12.0855 20.7668C12.1041 20.7557 12.1195 20.7397 12.1298 20.7205L12.6097 19.8426C12.6208 19.8222 12.6376 19.8055 12.658 19.7944L13.5359 19.3144C13.555 19.3041 13.571 19.2888 13.5822 19.2701C13.5933 19.2514 13.5992 19.2301 13.5992 19.2083C13.5992 19.1866 13.5933 19.1652 13.5822 19.1465C13.571 19.1279 13.555 19.1125 13.5359 19.1022L12.6568 18.6223C12.6364 18.6112 12.6196 18.5944 12.6085 18.574L12.1298 17.6961H12.1286ZM6.24135 4.43114C6.25178 4.41229 6.26707 4.39658 6.28562 4.38564C6.30418 4.3747 6.32533 4.36893 6.34687 4.36893C6.36841 4.36893 6.38956 4.3747 6.40811 4.38564C6.42667 4.39658 6.44196 4.41229 6.45239 4.43114L6.80813 5.08233C6.81941 5.10227 6.83614 5.11859 6.85636 5.12936L7.50514 5.4851C7.52399 5.49553 7.5397 5.51082 7.55064 5.52938C7.56158 5.54793 7.56735 5.56908 7.56735 5.59062C7.56735 5.61216 7.56158 5.63331 7.55064 5.65187C7.5397 5.67042 7.52399 5.68571 7.50514 5.69614L6.85636 6.05188C6.83598 6.06298 6.81923 6.07973 6.80813 6.10012L6.45239 6.74889C6.44196 6.76774 6.42667 6.78345 6.40811 6.79439C6.38956 6.80533 6.36841 6.8111 6.34687 6.8111C6.32533 6.8111 6.30418 6.80533 6.28562 6.79439C6.26707 6.78345 6.25178 6.76774 6.24135 6.74889L5.88561 6.09891C5.87451 6.07852 5.85776 6.06177 5.83737 6.05067L5.1886 5.69614C5.16975 5.68571 5.15404 5.67042 5.1431 5.65187C5.13215 5.63331 5.12639 5.61216 5.12639 5.59062C5.12639 5.56908 5.13215 5.54793 5.1431 5.52938C5.15404 5.51082 5.16975 5.49553 5.1886 5.4851L5.83858 5.12936C5.85897 5.11826 5.87571 5.10151 5.88682 5.08112L6.24135 4.43114Z" fill="white" style="fill:white;fill-opacity:1;"/>
</svg>
